<svg width="1440" height="1442" viewBox="0 0 1440 1442" fill="none" xmlns="http://www.w3.org/2000/svg">
<g filter="url(#filter0_d_105_39)">
<path d="M1004.5 600.735C794.155 706.512 135.23 334.875 -9.22339 516.705C-961.602 985.042 -354.138 1086.25 -9.22339 1371.19C-268.338 1021.97 162.06 1553.3 707.53 1138.15C1253 723 1519.26 952.643 1519.26 952.643C1519.26 952.643 1784.18 342.654 1519.26 98.1583C1254.33 -146.337 1214.85 494.958 1004.5 600.735Z" fill="#FF4B64"/>
<path d="M1004.5 600.735C794.155 706.512 135.23 334.875 -9.22339 516.705C-961.602 985.042 -354.138 1086.25 -9.22339 1371.19C-268.338 1021.97 162.06 1553.3 707.53 1138.15C1253 723 1519.26 952.643 1519.26 952.643C1519.26 952.643 1784.18 342.654 1519.26 98.1583C1254.33 -146.337 1214.85 494.958 1004.5 600.735Z" stroke="white"/>
</g>
<circle cx="1227" cy="318" r="92" fill="#755FC9"/>
<circle cx="671.5" cy="1168.5" r="38.5" fill="#93CA35"/>
<circle cx="1191" cy="885" r="92" fill="#FFCB2A"/>
<defs>
<filter id="filter0_d_105_39" x="-576.5" y="0.5" width="2270" height="1441.08" filterUnits="userSpaceOnUse" color-interpolation-filters="sRGB">
<feFlood flood-opacity="0" result="BackgroundImageFix"/>
<feColorMatrix in="SourceAlpha" type="matrix" values="0 0 0 0 0 0 0 0 0 0 0 0 0 0 0 0 0 0 127 0" result="hardAlpha"/>
<feOffset dy="14"/>
<feGaussianBlur stdDeviation="28"/>
<feComposite in2="hardAlpha" operator="out"/>
<feColorMatrix type="matrix" values="0 0 0 0 1 0 0 0 0 0.294118 0 0 0 0 0.392157 0 0 0 0.51 0"/>
<feBlend mode="normal" in2="BackgroundImageFix" result="effect1_dropShadow_105_39"/>
<feBlend mode="normal" in="SourceGraphic" in2="effect1_dropShadow_105_39" result="shape"/>
</filter>
</defs>
</svg>
