<svg width="20" height="16" viewBox="0 0 20 16" fill="none" xmlns="http://www.w3.org/2000/svg">
<path d="M17.633 3.99704C17.646 4.17204 17.646 4.34604 17.646 4.52004C17.646 9.84504 13.593 15.981 6.18597 15.981C3.90397 15.981 1.78397 15.32 -3.05176e-05 14.172C0.323969 14.209 0.635969 14.222 0.972969 14.222C2.85597 14.222 4.58897 13.586 5.97397 12.501C4.20297 12.464 2.71897 11.304 2.20697 9.70804C2.45597 9.74504 2.70597 9.77004 2.96797 9.77004C3.32897 9.77004 3.69197 9.72004 4.02897 9.63304C2.18197 9.25904 0.79897 7.63804 0.79897 5.68004V5.63004C1.33597 5.92904 1.95897 6.11604 2.61897 6.14104C1.53397 5.41904 0.822969 4.18404 0.822969 2.78704C0.822969 2.03904 1.02197 1.35304 1.37097 0.755043C3.35397 3.19804 6.33497 4.79504 9.67697 4.97004C9.61497 4.67004 9.57697 4.35904 9.57697 4.04704C9.57697 1.82704 11.373 0.019043 13.605 0.019043C14.765 0.019043 15.812 0.505043 16.548 1.29104C17.458 1.11604 18.33 0.779043 19.104 0.318043C18.805 1.25304 18.168 2.03904 17.333 2.53804C18.144 2.45004 18.93 2.22604 19.652 1.91404C19.104 2.71204 18.419 3.42304 17.633 3.99704Z" fill="#456580"/>
</svg>
