<svg width="18" height="18" viewBox="0 0 18 18" fill="none" xmlns="http://www.w3.org/2000/svg">
<path fill-rule="evenodd" clip-rule="evenodd" d="M13.5 0H4.49997C2.02519 0 -3.05176e-05 2.02432 -3.05176e-05 4.5V13.5C-3.05176e-05 15.9748 2.02519 18 4.49997 18H13.5C15.9747 18 18 15.9748 18 13.5V4.5C18 2.02432 15.9747 0 13.5 0ZM8.99997 12.7499C6.92862 12.7499 5.24989 11.0704 5.24989 9C5.24989 6.92865 6.92862 5.24993 8.99997 5.24993C11.0704 5.24993 12.75 6.92865 12.75 9C12.75 11.0704 11.0704 12.7499 8.99997 12.7499ZM12.75 4.12492C12.75 4.74615 13.2531 5.24992 13.875 5.24992C14.4969 5.24992 15 4.74615 15 4.12492C15 3.5037 14.4969 2.99992 13.875 2.99992C13.2531 2.99992 12.75 3.5037 12.75 4.12492Z" fill="#456580"/>
</svg>
