<svg width="119" height="30" viewBox="0 0 119 30" fill="none" xmlns="http://www.w3.org/2000/svg">
<path d="M2.94104 27.825H28.5911V2.17499H2.94104V27.825ZM23.6541 12.532H18.2341V7.11199H23.6541V12.532ZM7.87704 7.11199H13.3001V17.468H23.6541V22.888H7.87704V7.11199ZM45.2941 2.17499C42.7575 2.17499 40.2779 2.92717 38.1689 4.3364C36.0598 5.74563 34.416 7.74862 33.4453 10.0921C32.4746 12.4356 32.2207 15.0142 32.7155 17.502C33.2104 19.9898 34.4318 22.275 36.2254 24.0686C38.019 25.8623 40.3042 27.0837 42.792 27.5786C45.2799 28.0734 47.8585 27.8195 50.202 26.8488C52.5455 25.8781 54.5484 24.2343 55.9577 22.1252C57.3669 20.0161 58.1191 17.5365 58.1191 15C58.1151 11.5998 56.7626 8.34003 54.3583 5.93574C51.954 3.53144 48.6943 2.17896 45.2941 2.17499ZM45.2941 22.888C43.734 22.888 42.2089 22.4254 40.9117 21.5586C39.6146 20.6919 38.6035 19.46 38.0065 18.0186C37.4095 16.5773 37.2533 14.9913 37.5576 13.4611C37.862 11.931 38.6133 10.5255 39.7164 9.42233C40.8196 8.31918 42.2251 7.56792 43.7552 7.26356C45.2853 6.9592 46.8713 7.11541 48.3127 7.71243C49.754 8.30945 50.986 9.32048 51.8527 10.6177C52.7195 11.9148 53.1821 13.4399 53.1821 15C53.1789 17.0911 52.3468 19.0956 50.8682 20.5742C49.3896 22.0528 47.3851 22.8848 45.2941 22.888ZM104.013 2.17499C101.476 2.1748 98.9968 2.9268 96.8876 4.33591C94.7784 5.74502 93.1345 7.74794 92.1636 10.0914C91.1928 12.4348 90.9386 15.0136 91.4334 17.5014C91.9281 19.9893 93.1495 22.2746 94.9431 24.0683C96.7366 25.862 99.0218 27.0836 101.51 27.5785C103.997 28.0734 106.576 27.8195 108.92 26.8489C111.263 25.8782 113.266 24.2344 114.675 22.1253C116.085 20.0162 116.837 17.5366 116.837 15C116.833 11.6 115.481 8.34035 113.077 5.93609C110.673 3.53182 107.413 2.17923 104.013 2.17499ZM104.013 22.888C102.453 22.8882 100.928 22.4257 99.6305 21.5591C98.3332 20.6925 97.322 19.4606 96.7248 18.0193C96.1276 16.578 95.9713 14.9919 96.2755 13.4617C96.5798 11.9316 97.331 10.526 98.4341 9.42269C99.5372 8.31943 100.943 7.56807 102.473 7.26363C104.003 6.95919 105.589 7.11534 107.03 7.71234C108.472 8.30933 109.704 9.32035 110.571 10.6176C111.437 11.9148 111.9 13.4399 111.9 15C111.897 17.0909 111.065 19.0952 109.586 20.5738C108.108 22.0524 106.104 22.8846 104.013 22.888ZM74.6531 2.17499C72.1165 2.17499 69.6369 2.92717 67.5279 4.3364C65.4188 5.74563 63.775 7.74862 62.8043 10.0921C61.8336 12.4356 61.5797 15.0142 62.0745 17.502C62.5694 19.9898 63.7908 22.275 65.5844 24.0686C67.378 25.8623 69.6632 27.0837 72.151 27.5786C74.6388 28.0734 77.2175 27.8195 79.561 26.8488C81.9045 25.8781 83.9074 24.2343 85.3167 22.1252C86.7259 20.0161 87.4781 17.5365 87.4781 15C87.4741 11.5998 86.1216 8.34003 83.7173 5.93574C81.313 3.53144 78.0533 2.17896 74.6531 2.17499ZM74.6531 22.888C73.1995 22.8887 71.7741 22.4878 70.534 21.7295C69.294 20.9712 68.2875 19.8851 67.6258 18.5909C66.9642 17.2967 66.6729 15.8448 66.7843 14.3956C66.8957 12.9463 67.4053 11.556 68.257 10.3781C69.1087 9.20025 70.2693 8.2806 71.6106 7.7207C72.952 7.16079 74.422 6.98241 75.8583 7.20523C77.2947 7.42806 78.6415 8.04342 79.7502 8.98341C80.8589 9.92339 81.6863 11.1515 82.1411 12.532H74.6531V17.468H82.1411C81.6202 19.0433 80.6166 20.4147 79.2725 21.3875C77.9285 22.3604 76.3123 22.8853 74.6531 22.888Z" fill="white"/>
</svg>
